<!DOCTYPE svg PUBLIC "-//W3C//DTD SVG 1.1//EN" "https://www.w3.org/Graphics/SVG/1.1/DTD/svg11.dtd">
<svg xmlns="http://www.w3.org/2000/svg" id="sfn-svg" class="sfn-workflow-graph" width="363" height="668">  
<g transform="translate(12,19.265625)">
<g class="nodes">
<g class="node-container" transform="translate(183.015625,18.390625)">
<g class="node anchor">
<circle class="shape" x="-15.65625" y="-8.390625" r="25.65625"/>
<text class="label">
<tspan xml:space="preserve" text-anchor="middle" alignment-baseline="central">Start</tspan>
</text>
</g>
</g>
<g class="node-container" transform="translate(196.75,614.421875)">
<g class="node anchor">
<circle class="shape" x="-12.1875" y="-8.390625" r="22.1875"/>
<text class="label">
<tspan xml:space="preserve" text-anchor="middle" alignment-baseline="central">End</tspan>
</text>
</g>
</g>
<g class="node-container" transform="translate(183.015625,80.171875)">
<g class="node state Task Succeeded">
<rect class="shape" rx="5" ry="5" x="-55.140625" y="-18.390625" width="110.28125" height="36.78125"/>
<text class="label">
<tspan xml:space="preserve" text-anchor="middle" alignment-baseline="central">Read Manifest</tspan>
</text>
</g>
</g>
<g class="node-container" transform="translate(183.015625,141.953125)">
<g class="node state Choice Succeeded">
<rect class="shape" rx="5" ry="5" x="-58.40625" y="-18.390625" width="116.8125" height="36.78125"/>
<text class="label">
<tspan xml:space="preserve" text-anchor="middle" alignment-baseline="central">Manifest Valid?</tspan>
</text>
</g>
</g>
<g class="node-container" transform="translate(253.1640625,223.734375)">
<g class="node state Map Container Succeeded" transform="translate(-69.703125,-38.390625)">
<rect class="shape" rx="5" ry="5" x="-10" y="-10" width="137.40625" height="74.78125"/>
<rect class="shape" rx="5" ry="5" x="-5" y="-5" width="138.40625" height="75.78125"/>
<rect class="shape" rx="5" ry="5" x="0" y="0" width="139.40625" height="76.78125"/>
<g class="branches" transform="translate(20,20)">
<g class="branch" transform="translate(0,0)">
<g class="nodes">
<g class="node-container" transform="translate(49.703125,18.390625)">
<g class="node state Task Succeeded">
<rect class="shape" rx="5" ry="5" x="-49.703125" y="-18.390625" width="99.40625" height="36.78125"/>
<text class="label">
<tspan xml:space="preserve" text-anchor="middle" alignment-baseline="central">Run Pipeline</tspan>
</text>
</g>
</g>
</g>
<g class="edges"/>
</g>
</g>
<path class="path" marker-end="url(#arrowhead31)" d="M69.703125,0L69.703125,1.6666666666666665C69.703125,3.333333333333333,69.703125,6.666666666666666,69.703125,8.333333333333332C69.703125,10,69.703125,10,69.703125,11.666666666666664C69.703125,13.333333333333332,69.703125,16.666666666666664,69.703125,18.333333333333332L69.703125,20" style="fill: none;"/>
</g>
</g>
<g class="node-container" transform="translate(56.453125,552.640625)">
<g class="node state Pass NotYetStarted">
<rect class="shape" rx="5" ry="5" x="-56.453125" y="-18.390625" width="112.90625" height="36.78125"/>
<text class="label">
<tspan xml:space="preserve" text-anchor="middle" alignment-baseline="central">Nothing To Do</tspan>
</text>
</g>
</g>
<g class="node-container" transform="translate(253.1640625,305.515625)">
<g class="node state Wait Succeeded">
<rect class="shape" rx="5" ry="5" x="-66.078125" y="-18.390625" width="132.15625" height="36.78125"/>
<text class="label">
<tspan xml:space="preserve" text-anchor="middle" alignment-baseline="central">Wait for Pipelines</tspan>
</text>
</g>
</g>
<g class="node-container" transform="translate(173.7421875,367.296875)">
<g class="node state Task Succeeded">
<rect class="shape" rx="5" ry="5" x="-59.28125" y="-18.390625" width="118.5625" height="36.78125"/>
<text class="label">
<tspan xml:space="preserve" text-anchor="middle" alignment-baseline="central">Check Pipelines</tspan>
</text>
</g>
</g>
<g class="node-container" transform="translate(253.1640625,429.078125)">
<g class="node state Choice Succeeded">
<rect class="shape" rx="5" ry="5" x="-60.015625" y="-18.390625" width="120.03125" height="36.78125"/>
<text class="label">
<tspan xml:space="preserve" text-anchor="middle" alignment-baseline="central">Pipelines Done?</tspan>
</text>
</g>
</g>
<g class="node-container" transform="translate(309.578125,552.640625)">
<g class="node state Fail NotYetStarted">
<rect class="shape" rx="5" ry="5" x="-28.984375" y="-18.390625" width="57.96875" height="36.78125"/>
<text class="label">
<tspan xml:space="preserve" text-anchor="middle" alignment-baseline="central">Failed</tspan>
</text>
</g>
</g>
<g class="node-container" transform="translate(196.75,490.859375)">
<g class="node state Task Succeeded">
<rect class="shape" rx="5" ry="5" x="-57.96875" y="-18.390625" width="115.9375" height="36.78125"/>
<text class="label">
<tspan xml:space="preserve" text-anchor="middle" alignment-baseline="central">Record Release</tspan>
</text>
</g>
</g>
<g class="node-container" transform="translate(196.75,552.640625)">
<g class="node state Succeed Succeeded">
<rect class="shape" rx="5" ry="5" x="-43.84375" y="-18.390625" width="87.6875" height="36.78125"/>
<text class="label">
<tspan xml:space="preserve" text-anchor="middle" alignment-baseline="central">Succeeded</tspan>
</text>
</g>
</g>
</g>
<g class="edges">
<g class="edge">
<path class="path" marker-end="url(#arrowhead32)" d="M183.015625,98.5625L183.01562499999997,100.64583333333331C183.015625,102.72916666666666,183.015625,106.89583333333331,183.01562499999997,111.06249999999999C183.015625,115.22916666666666,183.015625,119.39583333333333,183.01562499999997,121.47916666666666L183.015625,123.5625" style="fill: none;"/>
<defs>
<marker id="arrowhead32" viewBox="0 0 10 10" refX="9" refY="5" markerUnits="strokeWidth" markerWidth="8" markerHeight="6" orient="auto">
<path d="M 0 0 L 10 5 L 0 10 z"/>
</marker>
</defs>
</g>
<g class="edge">
<path class="path" marker-end="url(#arrowhead33)" d="M183.015625,44.046875L183.01562499999997,44.91927083333333C183.015625,45.791666666666664,183.015625,47.53645833333333,183.01562499999997,50.4921875C183.015625,53.447916666666664,183.015625,57.61458333333333,183.01562499999997,59.697916666666664L183.015625,61.78125" style="fill: none;"/>
<defs>
<marker id="arrowhead33" viewBox="0 0 10 10" refX="9" refY="5" markerUnits="strokeWidth" markerWidth="8" markerHeight="6" orient="auto">
<path d="M 0 0 L 10 5 L 0 10 z"/>
</marker>
</defs>
</g>
<g class="edge">
<path class="path" marker-end="url(#arrowhead34)" d="M224.77825066388468,160.34375L229.50921930323722,162.42708333333331C234.24018794258978,164.51041666666666,243.70212522129486,168.67708333333331,248.43309386064743,172.84375C253.1640625,177.01041666666666,253.1640625,181.17708333333331,253.16406249999997,183.26041666666666L253.1640625,185.34375" style="fill: none;"/>
<defs>
<marker id="arrowhead34" viewBox="0 0 10 10" refX="9" refY="5" markerUnits="strokeWidth" markerWidth="8" markerHeight="6" orient="auto">
<path d="M 0 0 L 10 5 L 0 10 z"/>
</marker>
</defs>
</g>
<g class="edge">
<path class="path" marker-end="url(#arrowhead35)" d="M124.609375,156.2085763888889L113.24999999999999,158.98110532407406C101.89062499999999,161.75363425925926,79.171875,167.29869212962961,67.8125,178.55299189814815C56.453125,189.80729166666666,56.453125,206.77083333333331,56.45312499999999,223.734375C56.453125,240.69791666666666,56.453125,257.6614583333333,56.45312499999999,271.29166666666663C56.453125,284.921875,56.453125,295.21875,56.45312499999999,305.51562499999994C56.453125,315.8125,56.453125,326.109375,56.45312499999999,336.40624999999994C56.453125,346.703125,56.453125,357,56.45312499999999,367.29687499999994C56.453125,377.59375,56.453125,387.890625,56.45312499999999,398.18749999999994C56.453125,408.484375,56.453125,418.78125,56.45312499999999,429.07812499999994C56.453125,439.375,56.453125,449.671875,56.45312499999999,459.96874999999994C56.453125,470.265625,56.453125,480.5625,56.45312499999999,490.85937499999994C56.453125,501.15625,56.453125,511.453125,56.45312499999999,518.6848958333333C56.453125,525.9166666666666,56.453125,530.0833333333333,56.45312499999999,532.1666666666666L56.453125,534.25" style="fill: none;"/>
<defs>
<marker id="arrowhead35" viewBox="0 0 10 10" refX="9" refY="5" markerUnits="strokeWidth" markerWidth="8" markerHeight="6" orient="auto">
<path d="M 0 0 L 10 5 L 0 10 z"/>
</marker>
</defs>
</g>
<g class="edge">
<path class="path" marker-end="url(#arrowhead36)" d="M56.453125,571.03125L56.45312499999999,573.1145833333334C56.453125,575.1979166666666,56.453125,579.3645833333333,76.22452443139898,585.8011917168811C95.99592386279797,592.2378001004289,135.53872272559593,600.9443502008578,155.31012215699494,605.2976252510723L175.0815215883939,609.6509003012868" style="fill: none;"/>
<defs>
<marker id="arrowhead36" viewBox="0 0 10 10" refX="9" refY="5" markerUnits="strokeWidth" markerWidth="8" markerHeight="6" orient="auto">
<path d="M 0 0 L 10 5 L 0 10 z"/>
</marker>
</defs>
</g>
<g class="edge">
<path class="path" marker-end="url(#arrowhead37)" d="M253.1640625,262.125L253.16406249999997,264.2083333333333C253.1640625,266.29166666666663,253.1640625,270.4583333333333,253.16406249999997,274.625C253.1640625,278.79166666666663,253.1640625,282.9583333333333,253.16406249999997,285.0416666666667L253.1640625,287.125" style="fill: none;"/>
<defs>
<marker id="arrowhead37" viewBox="0 0 10 10" refX="9" refY="5" markerUnits="strokeWidth" markerWidth="8" markerHeight="6" orient="auto">
<path d="M 0 0 L 10 5 L 0 10 z"/>
</marker>
</defs>
</g>
<g class="edge">
<path class="path" marker-end="url(#arrowhead38)" d="M205.88052842058676,323.90625L200.5241382671556,325.9895833333333C195.16774811372449,328.07291666666663,184.45496780686224,332.2395833333333,179.0985776534311,336.40625C173.7421875,340.57291666666663,173.7421875,344.7395833333333,173.7421875,346.8229166666667L173.7421875,348.90625" style="fill: none;"/>
<defs>
<marker id="arrowhead38" viewBox="0 0 10 10" refX="9" refY="5" markerUnits="strokeWidth" markerWidth="8" markerHeight="6" orient="auto">
<path d="M 0 0 L 10 5 L 0 10 z"/>
</marker>
</defs>
</g>
<g class="edge">
<path class="path" marker-end="url(#arrowhead39)" d="M173.7421875,385.6875L173.7421875,387.7708333333333C173.7421875,389.85416666666663,173.7421875,394.0208333333333,179.0985776534311,398.1875C184.45496780686224,402.35416666666663,195.16774811372449,406.52083333333326,200.5241382671556,408.60416666666663L205.88052842058676,410.6875" style="fill: none;"/>
<defs>
<marker id="arrowhead39" viewBox="0 0 10 10" refX="9" refY="5" markerUnits="strokeWidth" markerWidth="8" markerHeight="6" orient="auto">
<path d="M 0 0 L 10 5 L 0 10 z"/>
</marker>
</defs>
</g>
<g class="edge">
<path class="path" marker-end="url(#arrowhead40)" d="M281.2290678743045,410.6875L284.40833781192043,408.6041666666666C287.58760774953635,406.52083333333326,293.9461476247682,402.35416666666663,297.1254175623841,395.1223958333333C300.3046875,387.890625,300.3046875,377.59375,300.3046875,367.29687499999994C300.3046875,357,300.3046875,346.703125,297.1254175623841,339.47135416666663C293.9461476247682,332.2395833333333,287.58760774953635,328.07291666666663,284.40833781192043,325.9895833333333L281.2290678743045,323.90625" style="fill: none;"/>
<defs>
<marker id="arrowhead40" viewBox="0 0 10 10" refX="9" refY="5" markerUnits="strokeWidth" markerWidth="8" markerHeight="6" orient="auto">
<path d="M 0 0 L 10 5 L 0 10 z"/>
</marker>
</defs>
</g>
<g class="edge">
<path class="path" marker-end="url(#arrowhead41)" d="M286.74997628983306,447.46875L290.55466774152757,449.5520833333333C294.359359193222,451.63541666666663,301.968742096611,455.8020833333333,305.7734335483055,463.03385416666663C309.578125,470.265625,309.578125,480.5625,309.578125,490.85937499999994C309.578125,501.15625,309.578125,511.453125,309.578125,518.6848958333333C309.578125,525.9166666666666,309.578125,530.0833333333333,309.578125,532.1666666666666L309.578125,534.25" style="fill: none;"/>
<defs>
<marker id="arrowhead41" viewBox="0 0 10 10" refX="9" refY="5" markerUnits="strokeWidth" markerWidth="8" markerHeight="6" orient="auto">
<path d="M 0 0 L 10 5 L 0 10 z"/>
</marker>
</defs>
</g>
<g class="edge">
<path class="path" marker-end="url(#arrowhead42)" d="M219.57814871016691,447.46875L215.7734572584724,449.5520833333333C211.96876580677792,451.63541666666663,204.35938290338896,455.8020833333333,200.55469145169448,459.96875C196.75,464.13541666666663,196.75,468.30208333333326,196.74999999999997,470.38541666666663L196.75,472.46875" style="fill: none;"/>
<defs>
<marker id="arrowhead42" viewBox="0 0 10 10" refX="9" refY="5" markerUnits="strokeWidth" markerWidth="8" markerHeight="6" orient="auto">
<path d="M 0 0 L 10 5 L 0 10 z"/>
</marker>
</defs>
</g>
<g class="edge">
<path class="path" marker-end="url(#arrowhead43)" d="M196.75,509.25L196.74999999999997,511.3333333333333C196.75,513.4166666666666,196.75,517.5833333333333,196.74999999999997,521.75C196.75,525.9166666666666,196.75,530.0833333333333,196.74999999999997,532.1666666666666L196.75,534.25" style="fill: none;"/>
<defs>
<marker id="arrowhead43" viewBox="0 0 10 10" refX="9" refY="5" markerUnits="strokeWidth" markerWidth="8" markerHeight="6" orient="auto">
<path d="M 0 0 L 10 5 L 0 10 z"/>
</marker>
</defs>
</g>
<g class="edge">
<path class="path" marker-end="url(#arrowhead44)" d="M196.75,571.03125L196.74999999999997,573.1145833333334C196.75,575.1979166666666,196.75,579.3645833333333,196.74999999999997,582.8984375C196.75,586.4322916666666,196.75,589.3333333333333,196.74999999999997,590.7838541666666L196.75,592.234375" style="fill: none;"/>
<defs>
<marker id="arrowhead44" viewBox="0 0 10 10" refX="9" refY="5" markerUnits="strokeWidth" markerWidth="8" markerHeight="6" orient="auto">
<path d="M 0 0 L 10 5 L 0 10 z"/>
</marker>
</defs>
</g>
<g class="edge">
<path class="path" marker-end="url(#arrowhead45)" d="M309.578125,571.03125L309.578125,573.1145833333334C309.578125,575.1979166666666,309.578125,579.3645833333333,294.3400945253951,585.6198577064525C279.1020640507902,591.8751320795718,248.62600310158047,600.2190141591435,233.3879726269756,604.3909551989294L218.14994215237076,608.5628962387153" style="fill: none;"/>
<defs>
<marker id="arrowhead45" viewBox="0 0 10 10" refX="9" refY="5" markerUnits="strokeWidth" markerWidth="8" markerHeight="6" orient="auto">
<path d="M 0 0 L 10 5 L 0 10 z"/>
</marker>
</defs>
</g>
</g>
</g>
<style xmlns="http://www.w3.org/1999/xhtml">.node &gt; .shape {stroke: #555555;stroke-width: 0.6px;fill: #FFFFFF;} path {stroke: #555;background-color: #555;stroke-width: 1px;} .node.state.NotYetStarted &gt; .shape,.node.state.Container &gt; .shape {stroke-dasharray: 5 2;} .node.state.Failed &gt; .shape,rect.legend.Failed {fill: #DE322F;} .node.state.CaughtError &gt; .shape,rect.legend.CaughtError {fill: #FFA500;} .node.state.Succeeded &gt; .shape,rect.legend.Succeeded {fill: #2BD62E;} .node.state.InProgress &gt; .shape,rect.legend.InProgress {fill: #53c9ed;} .node.state.Cancelled &gt; .shape,rect.legend.Cancelled {fill: #dddddd;} .node.anchor &gt; .shape {fill: #FFDA75;} .node.state.hovered:not(.selected):not(.NotYetStarted) &gt; .shape,.node.selected &gt; .shape {stroke: #555555;stroke-width: 2px;} .node.state.Container.Failed &gt; .shape {fill: #EE9592;} .node.state.Container.CaughtError &gt; .shape {fill: #FFD27F;} .node.state.Container.Succeeded &gt; .shape {fill: #91EA9A;} .node.state.Container.InProgress &gt; .shape {fill :#A9E4F7;} .node.state.Container.Cancelled &gt; .shape {fill: #EEEEEE;} marker {fill: #555555;} .node.anchor,.node.state.NotYetStarted {cursor: default;} .node.state {cursor: pointer;} .label tspan {font-family: sans-serif; font-weight: normal;font-size: 12px;text-shadow: none;} </style>
</svg>